<svg xmlns="http://www.w3.org/2000/svg" xmlns:xlink="http://www.w3.org/1999/xlink" width="18" height="18" viewBox="0 0 18 18" fill="none"><path     fill="#FFFFFF"  d="M9.76465 8.23077L11.9246 5.77077C12.1316 5.53431 11.9589 5.16077 11.6446 5.16077L11.0846 5.16077C10.9792 5.16077 10.8841 5.20139 10.8146 5.28077L9.27465 7.04077C9.12894 7.20731 8.87035 7.20731 8.72465 7.04077L7.18465 5.28077C7.1152 5.20139 7.02011 5.16077 6.91465 5.16077L6.35465 5.16077C6.04043 5.16077 5.86772 5.53431 6.07465 5.77077L8.23465 8.23077L6.29465 8.23077C6.09267 8.23077 5.92465 8.39879 5.92465 8.60077L5.92465 8.63077C5.92465 8.83274 6.09267 9.00077 6.29465 9.00077L8.23465 9.00077L8.23465 10.5408L6.29465 10.5408C6.09267 10.5408 5.92465 10.6988 5.92465 10.9008L5.92465 10.9408C5.92465 11.1427 6.09267 11.3008 6.29465 11.3008L8.23465 11.3008L8.23465 13.2408C8.23465 13.4427 8.39267 13.6108 8.59465 13.6108L9.40465 13.6108C9.60663 13.6108 9.76465 13.4427 9.76465 13.2408L9.76465 11.3008L11.7046 11.3008C11.9066 11.3008 12.0746 11.1427 12.0746 10.9408L12.0746 10.9008C12.0746 10.6988 11.9066 10.5408 11.7046 10.5408L9.76465 10.5408L9.76465 9.00077L11.7046 9.00077C11.9066 9.00077 12.0746 8.83274 12.0746 8.63077L12.0746 8.60077C12.0746 8.39879 11.9066 8.23077 11.7046 8.23077L9.76465 8.23077"></path><path   fill="rgba(255, 255, 255, 1)"  d="M11.7054 8.33189L9.76778 8.33189L9.69253 8.16603L11.8493 5.70147L11.8493 5.70147C11.9996 5.52967 11.8776 5.26077 11.6493 5.26077L11.6493 5.26077L11.0858 5.26077L11.0858 5.16077L11.0858 5.26077L11.0858 5.16077L11.0858 5.26077Q10.9652 5.26077 10.8858 5.35152L10.8105 5.28568L10.8858 5.35152L9.35051 7.10638L9.27525 7.04053L9.35051 7.10638C9.16496 7.31847 8.83504 7.31847 8.6495 7.10638L8.72476 7.04053L8.6495 7.10638L7.11423 5.35152L7.18949 5.28568L7.11423 5.35152L7.18949 5.28568L7.11423 5.35152Q7.03483 5.26077 6.91424 5.26077L6.91424 5.26077L6.35067 5.26077L6.35067 5.16077L6.35067 5.26077C6.12237 5.26077 6.00036 5.52966 6.15071 5.70147L6.07545 5.76732L6.15071 5.70147L8.30748 8.16603L8.23222 8.33189L6.2946 8.33189L6.2946 8.23189L6.2946 8.33189C6.14785 8.33189 6.02888 8.45085 6.02888 8.5976L5.92888 8.5976L6.02888 8.5976L6.02888 8.63395L5.92888 8.63395L6.02888 8.63395C6.02888 8.7807 6.14785 8.89967 6.2946 8.89967L6.2946 8.99967L6.2946 8.89967L8.23222 8.89967L8.33222 8.99967L8.33222 10.5361L8.23222 10.6361L6.2946 10.6361L6.2946 10.5361L6.2946 10.6361C6.14785 10.6361 6.02888 10.755 6.02888 10.9018L5.92888 10.9018L6.02888 10.9018L6.02888 10.9381L5.92888 10.9381L6.02888 10.9381C6.02888 11.0849 6.14785 11.2039 6.2946 11.2039L6.2946 11.3039L6.2946 11.2039L8.23222 11.2039L8.33222 11.3039L8.33222 13.2415L8.23222 13.2415L8.33222 13.2415C8.33222 13.3882 8.45119 13.5072 8.59794 13.5072L8.59794 13.6072L8.59794 13.5072L9.40207 13.5072L9.40207 13.6072L9.40207 13.5072C9.54882 13.5072 9.66778 13.3882 9.66778 13.2415L9.76778 13.2415L9.66778 13.2415L9.66778 11.3039L9.76778 11.2039L11.7054 11.2039L11.7054 11.3039L11.7054 11.2039C11.8522 11.2039 11.9711 11.0849 11.9711 10.9381L12.0711 10.9381L11.9711 10.9381L11.9711 10.9018L12.0711 10.9018L11.9711 10.9018C11.9711 10.755 11.8522 10.6361 11.7054 10.6361L11.7054 10.5361L11.7054 10.6361L9.76778 10.6361L9.66778 10.5361L9.66778 8.99967L9.76778 8.89967L11.7054 8.89967L11.7054 8.99967L11.7054 8.89967C11.8522 8.89967 11.9711 8.7807 11.9711 8.63395L12.0711 8.63395L11.9711 8.63395L11.9711 8.5976L12.0711 8.5976L11.9711 8.5976C11.9711 8.45085 11.8522 8.33189 11.7054 8.33189L11.7054 8.23189L11.7054 8.33189ZM11.7054 8.13189L11.7054 8.13189C11.9626 8.13189 12.1711 8.34039 12.1711 8.5976L12.1711 8.5976L12.1711 8.63395L12.1711 8.63395C12.1711 8.89116 11.9626 9.09967 11.7054 9.09967L11.7054 9.09967L9.76778 9.09967L9.76778 8.99967L9.86778 8.99967L9.86778 10.5361L9.76778 10.5361L9.76778 10.4361L11.7054 10.4361L11.7054 10.4361C11.9626 10.4361 12.1711 10.6446 12.1711 10.9018L12.1711 10.9018L12.1711 10.9381L12.1711 10.9381C12.1711 11.1953 11.9626 11.4039 11.7054 11.4039L11.7054 11.4039L9.76778 11.4039L9.76778 11.3039L9.86778 11.3039L9.86778 13.2415L9.86778 13.2415C9.86778 13.4987 9.65928 13.7072 9.40207 13.7072L9.40207 13.7072L8.59794 13.7072L8.59794 13.7072C8.34073 13.7072 8.13222 13.4987 8.13222 13.2415L8.13222 13.2415L8.13222 11.3039L8.23222 11.3039L8.23222 11.4039L6.2946 11.4039L6.2946 11.4039C6.03739 11.4039 5.82888 11.1953 5.82888 10.9381L5.82888 10.9381L5.82888 10.9018L5.82888 10.9018C5.82888 10.6446 6.03739 10.4361 6.2946 10.4361L6.2946 10.4361L8.23222 10.4361L8.23222 10.5361L8.13222 10.5361L8.13222 8.99967L8.23222 8.99967L8.23222 9.09967L6.2946 9.09967L6.2946 9.09967C6.03739 9.09967 5.82888 8.89116 5.82888 8.63395L5.82888 8.63395L5.82888 8.5976L5.82888 8.5976C5.82888 8.34039 6.03739 8.13189 6.2946 8.13189L6.2946 8.13189L8.23222 8.13189L8.23222 8.23189L8.15697 8.29774L6.0002 5.83318L6.0002 5.83318C5.73669 5.53206 5.95053 5.06077 6.35067 5.06077L6.35067 5.06077L6.91424 5.06077L6.91424 5.16077L6.91424 5.06077Q7.12559 5.06077 7.26475 5.21983L7.26475 5.21983L7.26475 5.21983L8.80002 6.97469L8.80002 6.97469C8.90589 7.0957 9.09412 7.0957 9.19999 6.97469L9.19999 6.97469L10.7353 5.21983L10.7353 5.21983Q10.8744 5.06077 11.0858 5.06077L11.0858 5.06077L11.0858 5.06077L11.6493 5.06077L11.6493 5.16077L11.6493 5.06077C12.0495 5.06077 12.2633 5.53206 11.9998 5.83318L11.9246 5.76732L11.9998 5.83318L9.84304 8.29774L9.76778 8.23189L9.76778 8.13189L11.7054 8.13189ZM9.69253 8.16603L9.76778 8.23189L9.76778 8.33189L9.54739 8.33189L9.69253 8.16603ZM8.23222 10.6361L8.23222 10.5361L8.33222 10.5361L8.33222 10.6361L8.23222 10.6361ZM9.66778 10.5361L9.76778 10.5361L9.76778 10.6361L9.66778 10.6361L9.66778 10.5361ZM9.76778 8.89967L9.76778 8.99967L9.66778 8.99967L9.66778 8.89967L9.76778 8.89967ZM8.23222 8.33189L8.23222 8.23189L8.30748 8.16603L8.45262 8.33189L8.23222 8.33189ZM9.76778 11.2039L9.76778 11.3039L9.66778 11.3039L9.66778 11.2039L9.76778 11.2039ZM8.33222 8.99967L8.23222 8.99967L8.23222 8.89967L8.33222 8.89967L8.33222 8.99967ZM8.33222 11.3039L8.23222 11.3039L8.23222 11.2039L8.33222 11.2039L8.33222 11.3039Z"></path><path d="M9 18C4.0302 18 0 13.9698 0 9C0 4.0302 4.0302 0 9 0C13.9698 0 18 4.0302 18 9C18 13.9698 13.9698 18 9 18ZM8.9975 16.3175C4.95954 16.3175 1.6875 13.0355 1.6875 8.9975C1.6875 4.95954 4.95954 1.6875 8.9975 1.6875C13.0355 1.6875 16.3175 4.95954 16.3175 8.9975C16.3175 13.0355 13.0355 16.3175 8.9975 16.3175Z" fill-rule="evenodd"  fill="#FFFFFF" ></path></svg>